<?xml version="1.0" encoding="utf-8"?>
<!-- Generator: Adobe Illustrator 17.0.2, SVG Export Plug-In . SVG Version: 6.00 Build 0)  -->
<!DOCTYPE svg PUBLIC "-//W3C//DTD SVG 1.0//EN" "http://www.w3.org/TR/2001/REC-SVG-20010904/DTD/svg10.dtd">
<svg version="1.0" id="Layer_1" xmlns="http://www.w3.org/2000/svg" xmlns:xlink="http://www.w3.org/1999/xlink" x="0px" y="0px"
	 width="305px" height="120px" viewBox="0 0 305 120" enable-background="new 0 0 305 120" xml:space="preserve">
<g>
	<path fill="#27AC5F" d="M6.169,92.644c3.605,1.091,7.194,2.239,11.037,3.44c0.319,2.637,0.56,5.613-1.568,8.29
		c-0.642,0.807-2.286,1.982-2.666,2.962c0.646,0.456-0.039,0.704-0.039,1.006c0,2.858,0,7.713,0,11.659h46.462
		c-0.753-3.945-1.501-7.929-2.27-11.234c0.397-0.22,0.801,0.297,1.486-0.081c1.235,3.575,2.433,7.37,3.653,11.315h108.863
		c0.011-0.986-0.132-3.223-0.374-4.151c-0.446-1.715-0.256-4.361-0.186-6.177c0.209-5.417,0.523-11.199,0.738-16.616
		c0.065-1.67-0.027-3.534-0.115-5.206c-0.024-0.459-0.303-0.996-0.446-1.452c-0.174-0.553-0.602-1.257-0.443-1.697
		c0.587-1.625,0.243-3.212,0.007-4.806c-0.034-0.23,0.028-0.486,0.059-0.915c0.646,0.388,1.177,0.702,2.023,1.21
		c-0.215,4.956-0.589,11.487-0.608,16.544c-0.016,4.404,0.248,16.363,0.438,23.267h58.045c-0.655-4.932-1.286-15.359-1.91-18.098
		c-0.065-0.285-0.112-1.327-0.091-1.617c0.347-4.867-0.586-9.956-1.477-14.703c-0.496-2.646-0.492-5.57-0.715-8.284
		c0.407-0.577,0.782-1.201,1.383-2.051c0.528,2.88,0.954,5.338,1.452,7.828c0.625,3.122,1.325,6.206,1.957,9.328
		c0.155,0.769,0.132,1.559,0.255,2.337c0.747,4.711,1.493,9.417,2.298,14.119c0.118,0.688-0.838,1.315-0.549,1.972
		c0.141-0.031-0.973-0.063-0.973-0.093c0,2.079,0,6.304,0,9.263h64.382c1.214-6.904,2.624-13.451,3.465-19.519
		c0.569-4.107,0.189-9.087,0.213-13.267c0.018-3.146,0.004-6.663,0.004-9.802c1.228-0.437,2.142-0.949,3.289-1.357
		c-0.671-3.152-1.344-6.404-2.019-9.563c-0.667-3.123-1.313-6.298-2.018-9.412c-0.401-1.773-0.725-3.619-1.407-5.287
		c-0.773-1.892-1.823-3.633-3.62-4.911c-3.835-2.731-7.92-4.96-12.24-6.798c-2.923-1.245-4.439-3.89-3.945-7.06
		c0.251-1.616,0.887-3.172,1.359-4.786c1.793-0.014,2.283-1.129,2.583-2.378c0.362-1.508,0.855-3.017,0.952-4.547
		c0.089-1.396-0.268-1.576-1.862-1.918c0.896-5.647,1.81-10.019-4.812-13.21c-0.222-0.31-0.443,1.374-0.696,0.387
		c-0.521,0-1.06,0-1.662,0c-0.227,0-0.453-1.932-0.868-2.454c-2.546,0.38-5.276-0.126-7.856,0.588
		c-1.3,0.359-2.525,1.191-3.441,2.284c-2.034,2.426-2.958,5.103-2.543,8.339c0.148,1.16,0.023,2.27,0.023,3.48
		c-1.659,0.78-2.42,2.186-1.28,4.264c0.442,0.806,0.677,1.716,0.924,2.614c0.293,1.061,0.647,1.981,1.809,1.843
		c0.591,1.384,1.124,2.624,1.858,4.342c-0.006,1.647,0.019,3.832-2.101,5.257c-0.283,0.191-0.543,0.446-0.854,0.56
		c-2.634,0.957-5.285,1.869-7.916,2.836c-2.349,0.864-4.684,1.771-7.018,2.677c-1.705,0.662-2.829,1.972-3.552,3.567
		c-1.314,2.895-2.508,5.845-3.752,8.772c-0.622-2.26-1.195-4.534-1.879-6.774c-0.904-2.965-2.403-5.589-4.901-7.509
		c-0.558-0.43-1.36-0.525-2.014-0.847c-3.485-1.717-6.956-3.459-10.435-5.188c-1.523-0.756-3.051-1.502-4.407-2.169
		c0-1.746-0.042-3.172,0.028-4.592c0.019-0.381,0.328-0.788,0.591-1.112c1.389-1.71,2.357-3.591,2.713-5.799
		c0.132-0.815,0.567-1.582,0.728-2.407c0.758-2.665,1.672-5.299,2.212-8.008c0.293-1.467,0.275-3.015-0.628-4.54
		c-1.142-1.93-1.906-4.096-3.648-5.62c-1.753-1.534-3.652-0.904-6.179-0.477c-0.767,0.129-1.64,1.141-2.465,1.141
		c-0.098,0-0.197,0-0.296,0c-0.242,0-0.483-1.157-0.711-0.888c-3.458-0.91-5.828-0.333-8.366,1.842
		c-2.224,1.906-3.043,3.887-3.539,6.281c-0.63,3.043-0.389,6.055,0.955,9.053c0.57,1.27,0.898,2.541,1.428,3.833
		c0.27,0.657,0.742,1.176,1.259,2.007c0,1.052,0.076,2.356-0.021,3.675c-0.098,1.322-0.37,2.618-0.56,3.891
		c-0.78,1.056-1.539,2.075-2.4,3.238c-5.968,1.765-10.689,6.143-16.332,9.027c-0.678,1.212-1.415,2.531-2.034,3.639
		c-1.897-0.575-3.67-1.023-5.375-1.656c-1.6-0.593-3.131-1.374-4.683-2.092c-0.354-0.164-0.642-0.507-1.005-0.607
		c-2.67-0.743-3.148-2.781-3.376-5.387c-0.509,0.599-1.018,1.198-1.629,1.917c-0.57-0.462-1.199-0.973-1.91-1.55
		c1.324-2.45,2.601-4.811,3.877-7.172c0.239,0.08,0.478,0.16,0.718,0.239c0.214-1.665,0.401-3.335,0.65-4.994
		c0.219-1.456,0.467-2.911,0.777-4.351c0.546-2.532-0.063-4.88-1.07-7.166c-0.153-0.348-0.419-0.694-0.721-0.923
		c-2.888-2.174-5.851-3.98-9.762-3.591c-3.217,0.32-5.678,1.795-7.226,4.435c-1.013,1.726-1.343,3.853-2.118,6.231
		c-2.55,2.417-2.422,4.024,1.242,7.372c-0.282,3.05-0.332,6.38-1.022,9.571c-0.252,1.168-1.863,2.359-3.129,2.929
		c-2.902,1.309-6.058,2.062-8.952,3.386c-2.387,1.091-4.547,2.677-6.807,4.047c-1.122,0.681-1.678,1.703-1.98,2.969
		c-0.286,1.189-0.769,2.33-1.206,3.615c-1.088-0.942-2.019-1.994-3.164-2.699c-4.4-2.708-8.874-5.293-13.302-7.956
		c-0.56-0.336-1.088-0.798-1.483-1.316c-0.596-0.779-1.058,0.003-1.583-0.831c-1.86-2.957-0.961-4.51-0.661-7.469
		c0.599,0,0.916,0,1.32,0c0.727-2.959,1.443-6.161,2.176-8.445c-0.509-0.326-0.901-1.407-1.276-1.648
		c1.251-4.907,0.469-9.711-3.862-12.6c-3.629-2.422-7.704-2.994-11.772-0.88c-5.068,2.631-5.993,6.916-5.193,12.064
		c-0.432,0.245-0.845,0.427-1.347,0.711c0.769,2.416,0.971,4.84,2.597,7.044c2.226,3.018,0.952,9.276-1.949,11.676
		c-0.323,0.266-0.82,0.304-1.199,0.515c-1.374,0.764-2.747,1.525-4.093,2.336c-2.199,1.325-4.349,2.66-6.827,3.53
		c-4.104,1.439-7.504,3.882-9.203,8.151c-0.432,1.084-0.951,2.132-1.534,3.432c-1.592-3.679-2.925-7.14-2.941-10.929
		c-0.012-2.696-0.477-5.268-1.359-7.813c-0.341-0.983-0.398-2.122-0.339-3.178c0.275-4.995-0.147-9.848-2.738-14.274
		c-1.193-2.038-2.772-3.898-5.076-4.504c-4.985-1.31-10.827-0.815-14.664,5.145c-4.821,7.487-7.753,15.791-10.043,24.331
		c-0.434,1.621-1.42,2.854-2.761,3.189c-5.046,1.257-7.452,5.18-9.877,9.156c-0.486,0.798-0.901,1.639-1.497,2.273
		c-1.222,0.87-2.444,1.74-3.73,2.655c0.452,0.706,0.893,1.293,1.226,1.936c1.131,2.181,1.576,4.362,0.516,6.788
		c-1.16,2.657-2.148,5.4-3.036,8.161c-0.596,1.855-0.886,3.81-1.266,5.505C2.94,90.515,4.123,92.023,6.169,92.644z M244.665,87.882
		c0.289,2.146,0.619,3.89,0.721,5.645c0.059,0.999-0.463,2.042-0.355,3.024c0.166,1.528,0.69,3.012,0.975,4.532
		c0.157,0.833,0.412,1.805,0.137,2.53c-0.517,1.356-1.531,2.522-2.07,3.874c-0.517,1.296-0.695,2.728-1.023,4.099
		c-0.183-0.029-0.367-0.059-0.551-0.088C243.21,103.753,243.921,96.006,244.665,87.882z M182.994,87.968
		c0.254,0.032,0.508,0.063,0.761,0.093c-0.262,1.686-1.509,13.235-1.771,14.921c-0.209-0.03-0.418-0.06-0.628-0.09
		C181.574,101.207,182.778,89.656,182.994,87.968z M129.139,81.575c0.658-0.34,1.04-0.537,1.699-0.878
		c0.162,0.822,0.449,1.508,0.399,2.169c-0.171,2.248-0.506,4.484-0.691,6.732c-0.131,1.598,0.019,3.229-0.227,4.803
		c-0.159,1.013-0.81,1.949-1.241,2.919c-0.134-0.024-0.269-0.048-0.404-0.072C128.829,92.037,128.984,86.826,129.139,81.575z
		 M127.896,101.298c-0.303,4.256-0.608,8.513-0.911,12.768c-0.231-0.02-0.463-0.04-0.694-0.062
		C126.514,109.74,126.533,105.454,127.896,101.298z M115.164,83.447c2.145,3.602,4.353,6.613,2.951,10.934
		c-1.156,3.566-2.463,7.175-2.292,11.073c0.033,0.752-0.563,1.532-0.923,2.437c-2.504-3.884-1.009-8.146-1.774-12.07
		C112.29,91.537,114.062,87.8,115.164,83.447z M66.499,87.887c0.761-2.377,1.695-4.7,2.532-6.975
		c1.373,2.587,1.454,5.46,0.921,8.447c-0.684,3.83-1.314,7.67-1.852,11.523c-0.209,1.502-0.116,3.048-0.143,4.574
		c-0.017,0.98-0.003,1.96-0.003,2.94c-0.096,0.006-0.192,0.012-0.287,0.018c-0.209-2.13-0.408-4.259-0.628-6.388
		c-0.365-3.528-0.817-7.05-1.073-10.586C65.882,90.272,66.137,89.018,66.499,87.887z M55.94,94.093
		c0.263,2.431,0.526,4.861,0.789,7.292c-1.731-2.214-0.201-4.879-1.447-7.158C55.502,94.183,55.721,94.138,55.94,94.093z"/>
</g>
</svg>
