<?xml version="1.0" encoding="utf-8"?>
<!DOCTYPE svg PUBLIC "-//W3C//DTD SVG 1.1//EN" "http://www.w3.org/Graphics/SVG/1.1/DTD/svg11.dtd">
<svg version="1.1" xmlns="http://www.w3.org/2000/svg" xmlns:xlink="http://www.w3.org/1999/xlink" width="32" height="32" viewBox="0 0 32 32">
<path fill="#777777" d="M22.563 3.688c0.75 0 1.313 0.563 1.313 1.313v21.25c0 0.75-0.563 1.313-1.313 1.313h-6.125v-9.25h3.125l0.438-3.563h-3.563v-2.313c0-1.063 0.313-1.75 1.813-1.75h1.875v-3.25c-0.313-0.063-1.438-0.125-2.75-0.125-2.75 0-4.625 1.688-4.625 4.75v2.688h-3.125v3.563h3.125v9.25h-11.438c-0.75 0-1.313-0.563-1.313-1.313v-21.25c0-0.75 0.563-1.313 1.313-1.313h21.25z"></path>
</svg>
