<?xml version="1.0" encoding="utf-8"?>
<!DOCTYPE svg PUBLIC "-//W3C//DTD SVG 1.1//EN" "http://www.w3.org/Graphics/SVG/1.1/DTD/svg11.dtd">
<svg version="1.1" xmlns="http://www.w3.org/2000/svg" xmlns:xlink="http://www.w3.org/1999/xlink" width="24" height="32" viewBox="0 0 24 32">
<path fill="#777777" d="M12 3.875c6.625 0 12.063 5.438 12.063 12.063 0 5.313-3.5 9.875-8.25 11.438-0.625 0.125-0.813-0.313-0.813-0.625v-3.313c0-1.125-0.375-1.813-0.813-2.188 2.688-0.313 5.5-1.313 5.5-5.938 0-1.313-0.5-2.438-1.25-3.25 0.125-0.313 0.563-1.563-0.063-3.188 0 0-1-0.313-3.313 1.25-0.938-0.25-2.063-0.375-3.063-0.375s-2.063 0.125-3 0.375c-2.313-1.563-3.313-1.25-3.313-1.25-0.625 1.625-0.25 2.875-0.125 3.188-0.75 0.813-1.188 1.938-1.188 3.25 0 4.625 2.75 5.625 5.438 5.938-0.313 0.313-0.625 0.875-0.75 1.625-0.688 0.313-2.438 0.813-3.5-1 0 0-0.625-1.188-1.813-1.25 0 0-1.188 0-0.125 0.75 0 0 0.813 0.375 1.375 1.75 0 0 0.688 2.375 4.063 1.625v2s-0.188 0.75-0.813 0.625c-4.75-1.563-8.25-6.125-8.25-11.438 0-6.625 5.375-12.063 12-12.063z"></path>
</svg>
