<?xml version="1.0" encoding="utf-8"?>
<!DOCTYPE svg PUBLIC "-//W3C//DTD SVG 1.1//EN" "http://www.w3.org/Graphics/SVG/1.1/DTD/svg11.dtd">
<svg version="1.1" xmlns="http://www.w3.org/2000/svg" xmlns:xlink="http://www.w3.org/1999/xlink" width="23" height="32" viewBox="0 0 23 32">
<path fill="#777777" d="M20.688 3.938c1.5 0 2.75 1.188 2.75 2.688v18c0 1.5-1.25 2.688-2.75 2.688h-18c-1.5 0-2.688-1.188-2.688-2.688v-18c0-1.5 1.188-2.688 2.688-2.688h18zM11.688 11.125c-2.5 0-4.5 2-4.5 4.5s2 4.5 4.5 4.5 4.5-2 4.5-4.5-2-4.5-4.5-4.5zM20.688 23.75v-9.938h-2c0.125 0.563 0.25 1.188 0.25 1.813 0 4-3.25 7.188-7.25 7.188s-7.188-3.188-7.188-7.188c0-0.625 0.125-1.25 0.25-1.813h-2.063v9.938c0 0.5 0.438 0.875 0.938 0.875h16.188c0.5 0 0.875-0.375 0.875-0.875zM20.688 10.25v-2.75c0-0.5-0.375-0.875-0.875-0.875h-2.688c-0.5 0-0.938 0.375-0.938 0.875v2.75c0 0.5 0.438 0.875 0.938 0.875h2.688c0.5 0 0.875-0.375 0.875-0.875z"></path>
</svg>
