<?xml version="1.0" encoding="utf-8"?>
<!DOCTYPE svg PUBLIC "-//W3C//DTD SVG 1.1//EN" "http://www.w3.org/Graphics/SVG/1.1/DTD/svg11.dtd">
<svg version="1.1" xmlns="http://www.w3.org/2000/svg" xmlns:xlink="http://www.w3.org/1999/xlink" width="29" height="32" viewBox="0 0 29 32">
<path fill="#777777" d="M28.625 6.75c-0.813 1.188-1.813 2.25-2.938 3.063v0.75c0 7.75-5.875 16.688-16.688 16.688-3.313 0-6.375-0.938-9-2.625 0.438 0.063 0.875 0.063 1.375 0.063 2.75 0 5.313-0.938 7.313-2.5-2.563-0.063-4.75-1.75-5.5-4.063 0.375 0.063 0.75 0.125 1.125 0.125 0.563 0 1.063-0.125 1.563-0.25-2.688-0.563-4.75-2.875-4.75-5.75v-0.063c0.813 0.438 1.75 0.75 2.688 0.75-1.563-1.063-2.625-2.813-2.625-4.875 0-1.063 0.313-2.125 0.813-3 2.875 3.563 7.25 5.875 12.125 6.125-0.125-0.438-0.188-0.875-0.188-1.313 0-3.25 2.625-5.875 5.875-5.875 1.688 0 3.25 0.75 4.313 1.875 1.313-0.25 2.563-0.75 3.688-1.438-0.438 1.375-1.375 2.5-2.563 3.25 1.188-0.125 2.313-0.5 3.375-0.938z"></path>
</svg>
