<?xml version="1.0" encoding="utf-8"?>
<!-- Generator: Adobe Illustrator 19.1.0, SVG Export Plug-In . SVG Version: 6.00 Build 0)  -->
<svg version="1.1" id="Layer_1" xmlns="http://www.w3.org/2000/svg" xmlns:xlink="http://www.w3.org/1999/xlink" x="0px" y="0px"
	 viewBox="0 0 43.6 20" style="enable-background:new 0 0 43.6 20;" xml:space="preserve">
<style type="text/css">
	.st0{fill:#272727;}
</style>
<g>
	<path class="st0" d="M2.9,2v1.9h4.2v1.8H2.9v3.4H0.9V0.2h6.7V2H2.9z"/>
	<path class="st0" d="M30.3,2v7.1h-1.9V2h-2.7V0.2H33V2H30.3z"/>
	<path class="st0" d="M4.2,19.8c-1.3,0-2.7-0.5-3.8-1.4L1.6,17c0.8,0.7,1.6,1.1,2.6,1.1c0.8,0,1.3-0.3,1.3-0.8v0
		c0-0.5-0.3-0.7-1.8-1.1c-1.8-0.5-2.9-0.9-2.9-2.7v0c0-1.6,1.3-2.7,3.1-2.7c1.3,0,2.4,0.4,3.3,1.1l-1,1.5c-0.8-0.5-1.6-0.9-2.3-0.9
		c-0.7,0-1.1,0.3-1.1,0.8v0c0,0.6,0.4,0.8,1.9,1.2c1.8,0.5,2.8,1.1,2.8,2.7v0C7.4,18.8,6.1,19.8,4.2,19.8z"/>
	<path class="st0" d="M11.3,10.8H8.6V9H16v1.8h-2.7"/>
	<path class="st0" d="M13.2,8h-1.6V6.2H16V8h-1.6"/>
	<path class="st0" d="M11.3,13.7H8.6v-1.8H16v1.8h-2.7"/>
	<path class="st0" d="M30.4,19.8c-2.6,0-4.5-2-4.5-4.6v0c0-2.5,1.9-4.6,4.6-4.6c1.7,0,2.7,0.6,3.5,1.4l-1.2,1.4
		c-0.7-0.6-1.4-1-2.3-1c-1.5,0-2.6,1.2-2.6,2.8v0c0,1.5,1,2.8,2.6,2.8c1,0,1.6-0.4,2.3-1l1.2,1.3C33.2,19.2,32.1,19.8,30.4,19.8z"/>
	<path class="st0" d="M40.8,19.7l-2.7-3.8L37,17v2.7h-1.9v-8.9H37v3.9l3.6-3.9H43l-3.6,3.8l3.8,5.1H40.8z"/>
	<rect x="11.3" y="14.8" class="st0" width="1.9" height="4.9"/>
	<rect x="8.6" y="0.2" class="st0" width="1.9" height="7.7"/>
	<path class="st0" d="M24,19.7l-0.8-2h-3.7l-0.8,2h-2l3.8-8.9h1.8l3.8,8.9H24z M21.3,13.1L20.1,16h2.4L21.3,13.1z"/>
	<path class="st0" d="M24,9.1l-0.8-2h-3.7l-0.8,2h-2l3.8-8.9h1.8L26,9.1H24z M21.3,2.5l-1.2,2.9h2.4L21.3,2.5z"/>
</g>
</svg>
