<?xml version="1.0" encoding="utf-8"?>
<!-- Generator: Adobe Illustrator 17.1.0, SVG Export Plug-In . SVG Version: 6.00 Build 0)  -->
<!DOCTYPE svg PUBLIC "-//W3C//DTD SVG 1.0//EN" "http://www.w3.org/TR/2001/REC-SVG-20010904/DTD/svg10.dtd">
<svg version="1.0" id="Layer_1" xmlns="http://www.w3.org/2000/svg" xmlns:xlink="http://www.w3.org/1999/xlink" x="0px" y="0px"
	 viewBox="0 0 135 97" enable-background="new 0 0 135 97" xml:space="preserve">
<g>
	<path fill="none" stroke="#333333" stroke-miterlimit="10" d="M71.8,44.2L67.7,40 M85.5,57.9l-8.3-8.3 M63.3,45.2l29.3,29.1
		l12.9,8.5l-8.4-13.3l-9.3-9.3 M52.9,34.9l7.6,7.5 M62.1,34.4l-7.2-7.2l-7.4-7.4l-4.9,4.9l7.2,7.1 M95.3,72.4
		c-1.1-3.2,1.5-1.8,1.5-1.8l4.6,7.3l-0.7,0.8l-7.6-5.2C93.1,73.5,92.6,71.2,95.3,72.4z M46.3,18.5l-6.1-6.1c-1-1-2.1-1.3-2.6-0.8
		l-3.1,3.1c-0.5,0.5-0.1,1.7,0.8,2.6l6.1,6.1L46.3,18.5z"/>
	<path fill="none" stroke="#333333" stroke-miterlimit="10" d="M86.6,31.6l6.9-6.9l-4.9-4.9l-7.9,8l-6.4,6.5 M75.3,42.8l8-8
		 M48.5,60.2l-9.5,9.6l-8.5,12.9l13.3-8.4L68.1,50 M58.1,50.5l-7,7.1 M63.3,45.2 M40.8,72.5c3.2-1.1,1.8,1.5,1.8,1.5l-7.3,4.6
		l-0.8-0.7l5.2-7.6C39.7,70.3,42.1,69.8,40.8,72.5z M94.7,23.4l6.1-6.1c1-1,1.3-2.1,0.8-2.6l-3.1-3.1c-0.5-0.5-1.7-0.1-2.6,0.8
		l-6.1,6.1L94.7,23.4z"/>
	<path fill="none" stroke="#333333" stroke-miterlimit="10" d="M113.3,33c0,0-2.4-0.2-7.5-1c0,0-4.3-0.4-10.1-0.6c0,0-3.8,0.1-7.9,0
		c0,0-3.4,0.3-7.9,0.9c0,0-3.4,1-6.9,2.1c0,0-2.2,0.9-3.9,1.1c0,0-1.1,0.1-2.6,0c0,0-1,0-2.6-0.6c0,0-3.3-1-8.4-2.3
		c0,0-6.7-1.5-18.6-1.1c-4.1,0.2-9.4,1.3-14.4,1.8v4.1v1.5c0,0,0.8,0.6,2.1,1.7c0,0,0.8,2.6,1.4,6.1c0,0,1.4,5.6,3.2,9.2
		c0,0,1.7,2.4,6.1,4.1c0,0,5.1,1,10,0.8c0,0,3.5-0.7,7.1-1.7c0,0,2.4-1.1,5-3.4c0,0,2.6-2.7,4.7-7.3c0,0,0.7-1.6,1.5-3.8
		c0,0,0.5-1.6,1.1-3.1c0,0,0.6-0.8,1.3-1.4c0,0,1-0.3,2.2-0.2c0,0,1,0.2,2,0.6c0,0,0.8,1.6,2.4,5c0,0,1.3,3.8,3,6.9
		c0,0,1.5,2.3,4.4,4.9c0,0,3.3,1.9,7.7,2.8c0,0,5,1,8.9,0.6c0,0,1.8-0.1,3.5-0.6c0,0,1.6-0.4,3.2-1c0,0,1.7-1,2.6-2.2
		c0,0,1.6-2.2,2.8-5.8c0,0,1.2-4.6,1.8-8.6c0,0,0.5-1,1-2c0,0,1-1.1,1.9-2.4C113.3,38.2,113.7,35.3,113.3,33z M60.4,43.2
		c-0.8,3.5-1.9,6.4-1.9,6.4c-1,2.2-2.4,4.1-2.4,4.1c-1.3,1.7-2.9,2.9-2.9,2.9c-2.8,1.5-5.9,2.2-5.9,2.2c-3,0.4-5.3,0.4-5.3,0.4
		c-3.4,0-6-0.6-6-0.6c-2.4-0.9-3.6-2.1-3.6-2.1c-1.7-2.7-2.3-4.7-2.3-4.7c-0.8-2.5-1.2-4.4-1.2-4.4c-0.2-1.9-0.3-3.3-0.3-3.3
		c-0.1-1.6,0-3.1,0-3.1c0.2-1.3,0.6-2.6,0.6-2.6c0.6-1.1,1.5-2,1.5-2c1.4-0.8,3.1-1.4,3.1-1.4c2.2-0.5,3.8-0.7,3.8-0.7
		c2.6-0.2,4.5-0.2,4.5-0.2c1,0,1.9,0,1.9,0c4.6,0,7.6,0.4,7.6,0.4c3.9,0.8,5.6,1.4,5.6,1.4c1.7,1,2.5,1.9,2.5,1.9
		c0.4,1,0.7,2.2,0.7,2.2C60.5,41.9,60.4,43.2,60.4,43.2z M107.1,44.1c0,0,0,1.4-0.3,3.3c0,0-0.4,1.9-1.2,4.4c0,0-0.6,2-2.3,4.7
		c0,0-1.1,1.2-3.6,2.1c0,0-2.6,0.5-6,0.6c0,0-2.3,0-5.3-0.4c0,0-3.1-0.7-5.9-2.2c0,0-1.6-1.2-2.9-2.9c0,0-1.3-1.9-2.4-4.1
		c0,0-1-3-1.9-6.4c0,0,0-1.3,0-3.1c0,0,0.3-1.2,0.7-2.2c0,0,0.8-0.9,2.5-1.9c0,0,1.7-0.5,5.6-1.3c0,0,3-0.4,7.6-0.4c0,0,0.8,0,1.9,0
		c0,0,1.9,0,4.5,0.2c0,0,1.6,0.3,3.8,0.8c0,0,1.7,0.5,3.1,1.3c0,0,0.8,0.8,1.5,1.9c0,0,0.4,1.3,0.6,2.6
		C107.1,41,107.2,42.5,107.1,44.1z"/>
</g>
</svg>
