<?xml version="1.0" encoding="utf-8"?>
<!-- Generator: Adobe Illustrator 17.1.0, SVG Export Plug-In . SVG Version: 6.00 Build 0)  -->
<!DOCTYPE svg PUBLIC "-//W3C//DTD SVG 1.0//EN" "http://www.w3.org/TR/2001/REC-SVG-20010904/DTD/svg10.dtd">
<svg version="1.0" id="Layer_1" xmlns="http://www.w3.org/2000/svg" xmlns:xlink="http://www.w3.org/1999/xlink" x="0px" y="0px"
	 viewBox="0 0 135 97" enable-background="new 0 0 135 97" xml:space="preserve">
<g>
	<g id="Your_Icon">
		<path fill="none" stroke="#333333" stroke-miterlimit="10" d="M66.6,31.7l1.8-20.9l39.9,3.4l-5.9,70.2l-37.9-3.2 M102.9,8.7
			c0,0.3-0.3,0.6-0.6,0.5c-0.3,0-0.6-0.3-0.5-0.6c0-0.3,0.3-0.6,0.6-0.5C102.7,8.1,102.9,8.4,102.9,8.7 M98.1,7.6
			c0,0.5-0.5,0.8-0.9,0.8c-0.5,0-0.8-0.5-0.8-0.9c0-0.5,0.5-0.8,0.9-0.8C97.8,6.7,98.1,7.2,98.1,7.6 M95.7,7.4C95.6,7.7,95.3,8,95,8
			c-0.3,0-0.6-0.3-0.5-0.6c0-0.3,0.3-0.6,0.6-0.5C95.4,6.8,95.7,7.1,95.7,7.4 M93.3,7.8L83.8,7l0-0.4l9.5,0.8L93.3,7.8L93.3,7.8z
			 M82.1,6.3c0,0.3-0.3,0.6-0.6,0.5c-0.3,0-0.6-0.3-0.5-0.6c0-0.3,0.3-0.6,0.6-0.5C81.8,5.7,82.1,5.9,82.1,6.3 M77,85.3
			c0.1-1.1,1.2-1,1.2-1l7.7,0.7c1.1,0.1,1,1.2,1,1.2l-0.1,0.8c-0.1,1.1-1.2,1-1.2,1l-7.7-0.7c-1.1-0.1-1-1.2-1-1.2L77,85.3z
			 M61.2,82c0.4,2.5,1.9,6.3,7.4,6.8L95,91.1c0,0,8.2,0.7,8.9-7.5l4.3-50.5l0.8,0.1l0.6-6.7l-0.8-0.1l1.1-12.8c0,0,0.6-7.2-6.6-7.8
			L74.8,3.4c0,0-7.2-0.6-7.8,6.6l-0.5,5.5l-0.6-0.1L65,25.9"/>
	</g>
	<g>
		<path fill="none" stroke="#333333" stroke-miterlimit="10" d="M49.6,85.2c-3.3,0.9-6.6-1.1-7.5-4.4L26.5,23.4
			c-0.9-3.3,1-6.7,4.3-7.6l23.5-6.4c3.3-0.9,6.6,1.1,7.5,4.4l15.6,57.4c0.9,3.3-1,6.7-4.3,7.6L49.6,85.2z M30.2,37.3
			c0,0-0.4,0.1-0.3,0.3l0.6,2.2c0,0.1,0.2,0.2,0.4,0.1L30.2,37.3z M28.5,31c0,0-0.4,0.1-0.3,0.3l0.6,2.2c0,0.1,0.2,0.2,0.4,0.1
			L28.5,31z M26.6,23.8c0,0-0.4,0.1-0.3,0.3L27,27c0,0.1,0.2,0.2,0.5,0.1L26.6,23.8z M54,9.4c0,0-0.1-0.4-0.3-0.3l-5.4,1.5
			c-0.1,0-0.2,0.2-0.1,0.5L54,9.4z M58.6,76.6l-0.3-1.2c-0.1-0.3,0.1-0.6,0.4-0.7l1.2-0.3c0.3-0.1,0.6,0.1,0.7,0.4l0.3,1.2
			c0.1,0.3-0.1,0.6-0.4,0.7L59.3,77C59,77.1,58.7,76.9,58.6,76.6 M60.3,74.8c0-0.2-0.2-0.3-0.4-0.2l-1.2,0.3c-0.2,0-0.3,0.2-0.2,0.4
			l0.3,1.2c0,0.2,0.2,0.3,0.4,0.2l1.2-0.3c0.2,0,0.3-0.2,0.2-0.4L60.3,74.8z M38,18.7c-0.5,0.1-0.8,0.6-0.7,1.1
			c0.1,0.5,0.6,0.8,1.1,0.7c0.5-0.1,0.8-0.6,0.7-1.1C39,18.9,38.5,18.6,38,18.7z M38.1,19.3c-0.2,0-0.3,0.2-0.2,0.4
			c0,0.2,0.2,0.3,0.4,0.2c0.2,0,0.3-0.2,0.2-0.4C38.5,19.3,38.3,19.2,38.1,19.3z"/>
		<path fill="none" stroke="#333333" stroke-miterlimit="10" d="M58.7,72.5c-0.3,0.1-0.7,0.2-0.9,0.4c-1.2,0.8-1.8,2.2-1.4,3.7
			C56.7,78,58,79,59.4,79c0.3,0,0.7,0,1-0.1c1.8-0.5,2.8-2.3,2.3-4.1C62.3,73,60.5,72,58.7,72.5"/>
		
			<rect x="36.1" y="23.1" transform="matrix(0.965 -0.2622 0.2622 0.965 -10.3809 15.1628)" fill="none" stroke="#333333" stroke-miterlimit="10" width="31.1" height="46.8"/>
		<path fill="none" stroke="#333333" stroke-miterlimit="10" d="M47.7,17c0.2,0.6-0.4,0.9-0.5,0.9L42,19.3c-0.4,0.1-0.8-0.1-0.9-0.5
			c-0.1-0.4,0.1-0.8,0.5-0.9c-0.1,0,0.1,0,0.3-0.1c0.1,0,0.8-0.2,0.9-0.2c-0.2,0,0.9-0.2,1.1-0.3c0.2,0,0.6-0.2,0.7-0.2l2.3-0.6
			C47.4,16.3,47.6,16.8,47.7,17"/>
	</g>
</g>
</svg>
