<?xml version="1.0" encoding="utf-8"?>
<!-- Generator: Adobe Illustrator 17.1.0, SVG Export Plug-In . SVG Version: 6.00 Build 0)  -->
<!DOCTYPE svg PUBLIC "-//W3C//DTD SVG 1.0//EN" "http://www.w3.org/TR/2001/REC-SVG-20010904/DTD/svg10.dtd">
<svg version="1.0" id="Layer_1" xmlns="http://www.w3.org/2000/svg" xmlns:xlink="http://www.w3.org/1999/xlink" x="0px" y="0px"
	 viewBox="0 0 135 97" enable-background="new 0 0 135 97" xml:space="preserve">
<g>
	<g>
		<g>
			<path fill="#333333" d="M132.2,1.6c0.3,0,0.5,0.2,0.5,0.5s-0.2,0.5-0.5,0.5c-0.1,0-0.1,0-0.2,0l-0.1,0l-0.1-0.1
				c-0.1-0.1-0.1-0.2-0.1-0.3C131.7,1.8,131.9,1.6,132.2,1.6 M111.2,8.3c0.3,0,0.5,0.2,0.5,0.5c0,0.1,0,0.1,0,0.2l-0.1,0.1l-0.1,0.1
				c-0.1,0.1-0.2,0.1-0.3,0.1c0,0-0.1,0-0.1,0l-0.1,0l-0.1-0.1c-0.1-0.1-0.2-0.2-0.2-0.4C110.6,8.5,110.9,8.3,111.2,8.3 M121.5,16.3
				c0.1,0,0.1,0,0.2,0l0.1,0l0.1,0.1c0.1,0.1,0.1,0.2,0.1,0.3c0,0.3-0.2,0.5-0.5,0.5c-0.3,0-0.5-0.2-0.5-0.5c0-0.1,0-0.1,0-0.2
				l0.1-0.1l0.1-0.1C121.3,16.4,121.4,16.3,121.5,16.3 M90,26.1c0.3,0,0.5,0.2,0.5,0.5l0,0.1l-0.1,0.1c-0.1,0.2-0.3,0.3-0.5,0.3
				c-0.2,0-0.3-0.1-0.4-0.2l-0.1-0.1l0-0.1c0,0,0-0.1,0-0.1C89.5,26.3,89.7,26.1,90,26.1 M100.7,28.2c0.1,0,0.1,0,0.2,0l0.1,0.1
				l0.1,0.1c0.1,0.1,0.1,0.2,0.1,0.3c0,0.3-0.2,0.5-0.5,0.5c-0.3,0-0.5-0.2-0.5-0.5l0-0.1l0.1-0.1C100.3,28.4,100.4,28.2,100.7,28.2
				 M79.6,30.5c0.2,0,0.3,0.1,0.4,0.2l0.1,0.1l0,0.1c0,0,0,0.1,0,0.1c0,0.3-0.2,0.5-0.5,0.5c-0.1,0-0.2,0-0.2-0.1l-0.1-0.1l-0.1-0.1
				c0-0.1-0.1-0.2-0.1-0.3C79.1,30.8,79.3,30.5,79.6,30.5 M58.6,36.5c0.3,0,0.5,0.2,0.5,0.5c0,0,0,0.1,0,0.1l0,0.1L59,37.4
				c-0.1,0.1-0.2,0.2-0.4,0.2c-0.1,0-0.2,0-0.3-0.1l-0.1-0.1l-0.1-0.1c-0.1-0.1-0.1-0.2-0.1-0.3C58.1,36.8,58.3,36.5,58.6,36.5
				 M69.2,42.4c0.1,0,0.2,0,0.2,0.1l0.1,0.1l0.1,0.1c0,0.1,0.1,0.2,0.1,0.3c0,0.3-0.2,0.5-0.5,0.5c-0.3,0-0.5-0.2-0.5-0.5
				c0,0,0-0.1,0-0.1l0-0.1l0.1-0.1C68.9,42.5,69,42.4,69.2,42.4 M48.1,47.5c0.1,0,0.2,0,0.3,0.1l0.1,0.1l0.1,0.1
				c0,0.1,0.1,0.2,0.1,0.3c0,0.3-0.2,0.5-0.5,0.5c-0.3,0-0.5-0.2-0.5-0.5C47.5,47.7,47.8,47.5,48.1,47.5 M132.2,0.6
				c-0.8,0-1.5,0.7-1.5,1.5c0,0.4,0.1,0.7,0.4,1l-8.9,12.3c-0.2-0.1-0.4-0.1-0.6-0.1c-0.4,0-0.7,0.1-1,0.3l-8-6.2
				c0.1-0.2,0.1-0.4,0.1-0.6c0-0.8-0.7-1.5-1.5-1.5c-0.8,0-1.5,0.7-1.5,1.5c0,0.5,0.2,0.9,0.5,1.2l-8.9,17.4
				c-0.2-0.1-0.4-0.1-0.6-0.1c-0.6,0-1.1,0.3-1.4,0.8l-7.8-1.5c0-0.8-0.7-1.5-1.5-1.5c-0.8,0-1.5,0.7-1.5,1.5c0,0.1,0,0.2,0,0.2
				l-7.7,3.3c-0.3-0.4-0.7-0.6-1.2-0.6c-0.8,0-1.5,0.7-1.5,1.5c0,0.3,0.1,0.6,0.3,0.9L70,41.5c-0.2-0.1-0.5-0.2-0.7-0.2
				c-0.4,0-0.8,0.2-1.1,0.5l-8-4.4c0-0.1,0.1-0.3,0.1-0.4c0-0.8-0.7-1.5-1.5-1.5c-0.8,0-1.5,0.7-1.5,1.5c0,0.3,0.1,0.6,0.2,0.8
				l-8.5,8.8c-0.2-0.1-0.5-0.2-0.8-0.2c-0.8,0-1.5,0.7-1.5,1.5c0,0.8,0.7,1.5,1.5,1.5c0.8,0,1.5-0.7,1.5-1.5c0-0.3-0.1-0.6-0.2-0.8
				l8.5-8.8c0.2,0.1,0.5,0.2,0.8,0.2c0.4,0,0.8-0.2,1.1-0.5l8,4.4c0,0.1-0.1,0.3-0.1,0.4c0,0.8,0.7,1.5,1.5,1.5
				c0.8,0,1.5-0.7,1.5-1.5c0-0.3-0.1-0.6-0.3-0.9l8.4-9.6c0.2,0.1,0.5,0.2,0.7,0.2c0.8,0,1.5-0.7,1.5-1.5c0-0.1,0-0.2,0-0.2l7.6-3.3
				c0.3,0.4,0.7,0.6,1.2,0.6c0.6,0,1.1-0.4,1.4-0.9l7.7,1.5c0,0.8,0.7,1.5,1.5,1.5c0.8,0,1.5-0.7,1.5-1.5c0-0.4-0.1-0.7-0.3-0.9
				l9-17.5c0.1,0,0.2,0,0.4,0c0.4,0,0.7-0.1,1-0.3l8,6.2c-0.1,0.2-0.1,0.4-0.1,0.6c0,0.8,0.7,1.5,1.5,1.5c0.8,0,1.5-0.7,1.5-1.5
				c0-0.4-0.1-0.7-0.4-1l8.9-12.3c0.2,0.1,0.4,0.1,0.6,0.1c0.8,0,1.5-0.7,1.5-1.5C133.7,1.2,133,0.6,132.2,0.6L132.2,0.6z"/>
		</g>
		<g>
			<path fill="#333333" d="M132.2,56.5c0.2,0,0.3,0.1,0.4,0.2c0.1,0.1,0.2,0.3,0.2,0.4c0,0.3-0.3,0.6-0.6,0.6
				c-0.2,0-0.4-0.1-0.5-0.2l-0.1-0.1l0-0.1c0-0.1,0-0.1,0-0.1C131.6,56.8,131.9,56.5,132.2,56.5 M69.2,58.8c0.3,0,0.6,0.3,0.6,0.6
				l0,0.1l-0.1,0.1c-0.1,0.2-0.3,0.4-0.5,0.4c-0.2,0-0.4-0.1-0.5-0.3l-0.1-0.1l0-0.1c0,0,0-0.1,0-0.1C68.6,59.1,68.9,58.8,69.2,58.8
				 M79.6,60.4c0.3,0,0.6,0.3,0.6,0.6c0,0.1-0.1,0.3-0.1,0.3L80,61.4l-0.1,0.1c-0.1,0-0.2,0.1-0.3,0.1c-0.2,0-0.5-0.1-0.5-0.4
				L79,61.1l0-0.2C79,60.6,79.3,60.4,79.6,60.4 M121.5,61.7c0.2,0,0.4,0.1,0.5,0.2l0.1,0.1l0,0.2c0,0,0,0.1,0,0.1
				c0,0.3-0.3,0.6-0.6,0.6c-0.2,0-0.4-0.1-0.5-0.3l-0.1-0.1l0-0.1c0,0,0-0.1,0-0.1C120.9,62,121.2,61.7,121.5,61.7 M58.6,63.3
				c0.2,0,0.4,0.1,0.5,0.3l0.1,0.1l0,0.1c0,0,0,0.1,0,0.1c0,0.3-0.3,0.6-0.6,0.6c-0.1,0-0.2,0-0.3-0.1l-0.1-0.1l-0.1-0.1
				C58.1,64.2,58,64,58,63.9C58,63.5,58.3,63.3,58.6,63.3 M100.7,64.5c0.3,0,0.5,0.2,0.6,0.5l0,0.1l0,0.1c-0.1,0.3-0.3,0.5-0.6,0.5
				c-0.3,0-0.5-0.2-0.6-0.4l0-0.1l0-0.1C100.1,64.7,100.4,64.5,100.7,64.5 M111.2,65.6c0.2,0,0.4,0.1,0.5,0.3l0.1,0.1l0,0.2
				c0,0,0,0,0,0.1c0,0.3-0.3,0.6-0.6,0.6c-0.3,0-0.6-0.2-0.6-0.5l0-0.1l0.1-0.1C110.7,65.7,110.9,65.6,111.2,65.6 M90,66.3
				c0.3,0,0.5,0.2,0.6,0.4l0,0.1l0,0.1c0,0.3-0.3,0.5-0.6,0.5c-0.3,0-0.6-0.3-0.6-0.6c0,0,0-0.1,0-0.1l0-0.1l0.1-0.1
				C89.6,66.4,89.8,66.3,90,66.3 M48.1,75.6c0.1,0,0.2,0,0.3,0.1l0.1,0.1l0.1,0.1c0.1,0.1,0.1,0.2,0.1,0.4c0,0.3-0.3,0.6-0.6,0.6
				c-0.3,0-0.6-0.3-0.6-0.6C47.5,75.8,47.7,75.6,48.1,75.6 M132.2,55.5c-0.9,0-1.6,0.7-1.6,1.6c0,0.1,0,0.2,0,0.4l-7.9,3.9
				c-0.3-0.4-0.7-0.6-1.2-0.6c-0.9,0-1.6,0.7-1.6,1.6c0,0.1,0,0.1,0,0.2l-7.4,2.7c-0.3-0.4-0.8-0.7-1.3-0.7c-0.7,0-1.3,0.4-1.5,1
				l-7.5-0.9c-0.2-0.7-0.8-1.2-1.6-1.2c-0.8,0-1.5,0.6-1.6,1.3l-7.6,1.6c-0.2-0.6-0.8-1.1-1.5-1.1c-0.5,0-1,0.3-1.3,0.7L81,61.9
				c0.2-0.3,0.3-0.6,0.3-0.9c0-0.9-0.7-1.6-1.6-1.6c-0.8,0-1.5,0.7-1.6,1.5l-7.2-1.5c0-0.9-0.7-1.6-1.6-1.6c-0.9,0-1.6,0.7-1.6,1.6
				c0,0.1,0,0.2,0,0.3l-7.8,3.2c-0.3-0.4-0.8-0.7-1.3-0.7c-0.9,0-1.6,0.7-1.6,1.6c0,0.4,0.1,0.7,0.3,0.9l-8.5,9.9
				c-0.2-0.1-0.5-0.2-0.7-0.2c-0.9,0-1.6,0.7-1.6,1.6c0,0.9,0.7,1.6,1.6,1.6c0.9,0,1.6-0.7,1.6-1.6c0-0.4-0.1-0.7-0.3-0.9l8.5-9.9
				c0.2,0.1,0.5,0.2,0.7,0.2c0.9,0,1.6-0.7,1.6-1.6c0-0.1,0-0.2,0-0.3l7.8-3.2c0.3,0.4,0.8,0.7,1.3,0.7c0.6,0,1.2-0.4,1.5-0.9
				l7.4,1.5c0.2,0.6,0.8,0.9,1.5,0.9c0.3,0,0.5-0.1,0.8-0.2l8,4.3c0,0.1,0,0.2,0,0.3c0,0.9,0.7,1.6,1.6,1.6c0.8,0,1.5-0.6,1.6-1.4
				l7.5-1.6c0.2,0.7,0.8,1.1,1.5,1.1c0.8,0,1.4-0.5,1.6-1.3l7.3,0.9c0.1,0.8,0.8,1.5,1.6,1.5c0.9,0,1.6-0.7,1.6-1.6
				c0-0.1,0-0.1,0-0.2l7.4-2.7c0.3,0.4,0.8,0.7,1.3,0.7c0.9,0,1.6-0.7,1.6-1.6c0-0.1,0-0.2,0-0.4l7.9-3.9c0.3,0.4,0.7,0.6,1.2,0.6
				c0.9,0,1.6-0.7,1.6-1.6C133.8,56.2,133.1,55.5,132.2,55.5L132.2,55.5z"/>
		</g>
		<g>
			<path fill="#333333" d="M132.2,18.8c0.3,0,0.6,0.2,0.6,0.6c0,0.3-0.2,0.6-0.6,0.6c-0.2,0-0.3-0.1-0.5-0.2l-0.1-0.1l0-0.1
				c0,0,0,0,0-0.1C131.6,19,131.9,18.8,132.2,18.8 M121.5,23c0.2,0,0.3,0.1,0.5,0.2l0.1,0.1l0,0.1c0,0,0,0.1,0,0.1
				c0,0.3-0.2,0.6-0.6,0.6c-0.1,0-0.2,0-0.3-0.1l-0.1-0.1l-0.1-0.1c-0.1-0.1-0.1-0.2-0.1-0.3C121,23.2,121.2,23,121.5,23
				 M111.2,34.7c0.1,0,0.2,0,0.2,0l0.1,0.1l0.1,0.1c0.1,0.1,0.1,0.2,0.1,0.3c0,0.3-0.2,0.5-0.6,0.5c-0.2,0-0.4-0.1-0.5-0.2l-0.1-0.1
				l0-0.1c0,0,0,0,0-0.1C110.6,34.9,110.9,34.7,111.2,34.7 M100.7,39.6c0.2,0,0.3,0.1,0.4,0.2l0.1,0.1l0,0.1c0,0,0,0.1,0,0.1
				c0,0.3-0.2,0.6-0.6,0.6c-0.2,0-0.4-0.1-0.5-0.3l-0.1-0.1l0-0.1C100.1,39.8,100.4,39.6,100.7,39.6 M90.1,41.1
				c0.3,0,0.4,0.2,0.5,0.3l0.1,0.1l0,0.1c0,0.3-0.3,0.5-0.5,0.5c-0.2,0-0.4-0.1-0.5-0.3l-0.1-0.1l0-0.1
				C89.6,41.3,89.9,41.1,90.1,41.1 M79.6,43.6c0.2,0,0.4,0.1,0.5,0.3l0.1,0.1v0.1c0,0.3-0.2,0.6-0.6,0.6c-0.1,0-0.2,0-0.3-0.1
				l-0.1-0.1l-0.1-0.1c0-0.1-0.1-0.2-0.1-0.3C79.1,43.9,79.3,43.6,79.6,43.6 M69.2,53.2c0.1,0,0.2,0,0.3,0.1l0.1,0.1l0.1,0.1
				c0,0.1,0.1,0.2,0.1,0.3c0,0.3-0.2,0.6-0.6,0.6c-0.2,0-0.4-0.1-0.5-0.3l-0.1-0.1l0-0.1C68.7,53.4,69,53.2,69.2,53.2 M58.6,55
				c0.2,0,0.4,0.1,0.5,0.3l0.1,0.1l0,0.1c0,0.3-0.3,0.5-0.5,0.5c-0.2,0-0.3-0.1-0.4-0.2l-0.1-0.1l0-0.1c0,0,0-0.1,0-0.1
				C58,55.3,58.3,55,58.6,55 M48.1,59.5c0.2,0,0.3,0.1,0.4,0.2l0.1,0.1l0,0.1c0,0,0,0.1,0,0.1c0,0.3-0.2,0.6-0.6,0.6
				c-0.3,0-0.6-0.2-0.6-0.6C47.5,59.7,47.8,59.5,48.1,59.5 M132.2,17.8c-0.9,0-1.6,0.7-1.6,1.6c0,0.1,0,0.1,0,0.2l-7.9,3.1
				c-0.3-0.4-0.7-0.7-1.3-0.7c-0.9,0-1.6,0.7-1.6,1.6c0,0.3,0.1,0.6,0.3,0.9l-8.5,9.4c-0.2-0.1-0.4-0.1-0.6-0.1
				c-0.9,0-1.5,0.7-1.5,1.6c0,0.1,0,0.1,0,0.2l-7.7,3.8c-0.3-0.4-0.7-0.6-1.2-0.6c-0.8,0-1.5,0.6-1.5,1.4l-7.6,1
				c-0.2-0.5-0.8-0.9-1.4-0.9c-0.8,0-1.5,0.6-1.5,1.4L81,43.5c-0.3-0.5-0.8-0.8-1.4-0.8c-0.9,0-1.6,0.7-1.6,1.5
				c0,0.3,0.1,0.5,0.2,0.8l-8.1,7.5c-0.2-0.2-0.5-0.3-0.9-0.3c-0.8,0-1.5,0.6-1.5,1.4L60,55c-0.2-0.6-0.8-0.9-1.4-0.9
				c-0.9,0-1.6,0.7-1.6,1.5c0,0.1,0,0.2,0,0.3l-7.7,3.3c-0.3-0.4-0.7-0.6-1.2-0.6c-0.9,0-1.6,0.7-1.6,1.5c0,0.9,0.7,1.6,1.6,1.6
				c0.9,0,1.6-0.7,1.6-1.6c0-0.1,0-0.2,0-0.3l7.7-3.3c0.3,0.4,0.7,0.6,1.2,0.6c0.8,0,1.5-0.6,1.5-1.4l7.7-1.3
				c0.2,0.6,0.8,0.9,1.4,0.9c0.9,0,1.6-0.7,1.6-1.6c0-0.3-0.1-0.5-0.2-0.8l8.1-7.5c0.2,0.2,0.5,0.3,0.9,0.3c0.9,0,1.6-0.7,1.6-1.6v0
				l7.6-1.9c0.2,0.6,0.8,0.9,1.4,0.9c0.8,0,1.5-0.7,1.5-1.5l7.5-1c0.2,0.6,0.8,0.9,1.4,0.9c0.9,0,1.6-0.7,1.6-1.6c0-0.1,0-0.2,0-0.3
				l7.7-3.8c0.3,0.4,0.8,0.7,1.3,0.7c0.9,0,1.6-0.7,1.6-1.5c0-0.4-0.1-0.7-0.3-1l8.4-9.3c0.2,0.1,0.5,0.2,0.7,0.2
				c0.9,0,1.6-0.7,1.6-1.6c0-0.1,0-0.1,0-0.2l7.9-3.1c0.3,0.4,0.7,0.7,1.3,0.7c0.9,0,1.6-0.7,1.6-1.6
				C133.8,18.5,133.1,17.8,132.2,17.8L132.2,17.8z"/>
		</g>
	</g>
	<path fill="none" stroke="#333333" stroke-miterlimit="10" d="M36.5,54.2c-3-3.3-8.3-6.8-9.3-9.5c-0.5-1-3.3-1.2-4.8-2
		c0.1-1.9,0.8-3.3,1.1-5.1c-3,0-5.1,0.9-6.7,2.2c-8.3,0.5-13.2,7.6-14,15.4c-0.9,8.5,3,14,2.2,22.4c0.9,0.5,2,0.9,3.1,1.2l0,0
		l-2.6,5.9h2.9c0,0.1,0,0.2,0,0.3v1.1c0,0.2,0,0.3,0.1,0.5H7.6c-0.7,0-1.3,0.6-1.3,1.3v0.7H2.8c-0.7,0-1.3,0.6-1.3,1.3l-1.3,4.5
		c0,0.7,0.6,1.3,1.3,1.3h29.1c0.7,0,1.3-0.6,1.3-1.3l-1.1-4.5c0-0.7-0.6-1.3-1.3-1.3h-2.4v-0.7c0-0.7-0.6-1.3-1.3-1.3h-0.9
		c0.1-0.1,0.1-0.3,0.1-0.5V85c0-0.1,0-0.2,0-0.3h1.1c1.7,0,1.8-1.4,2.2-4.2c0.7-11.2-4.9-16-10.1-21.3c3.2,0.9,4.3-1.4,7.3-1.1
		c2.3,0.2,3.5,2.9,5.3,3.1c2.1,0.2,4.4-1,5.6-2.5C37.7,57.1,37.5,55.1,36.5,54.2z"/>
</g>
</svg>
