<?xml version="1.0" encoding="utf-8"?>
<!-- Generator: Adobe Illustrator 17.1.0, SVG Export Plug-In . SVG Version: 6.00 Build 0)  -->
<!DOCTYPE svg PUBLIC "-//W3C//DTD SVG 1.0//EN" "http://www.w3.org/TR/2001/REC-SVG-20010904/DTD/svg10.dtd">
<svg version="1.0" id="Layer_1" xmlns="http://www.w3.org/2000/svg" xmlns:xlink="http://www.w3.org/1999/xlink" x="0px" y="0px"
	 viewBox="0 0 135 97" enable-background="new 0 0 135 97" xml:space="preserve">
<g>
	<g>
		<g>
			<polyline fill="none" stroke="#333333" stroke-miterlimit="10" points="76.6,46.2 113,46.8 112.3,88.5 70.6,87.8 70.9,69 			"/>
		</g>
		<g>
			
				<rect x="78.3" y="52.6" transform="matrix(0.9999 1.689906e-02 -1.689906e-02 0.9999 0.9786 -1.5462)" fill="none" stroke="#333333" stroke-miterlimit="10" width="27.5" height="9.1"/>
		</g>
		<g>
			
				<rect x="78" y="65.6" transform="matrix(0.9999 1.687674e-02 -1.687674e-02 0.9999 1.196 -1.367)" fill="none" stroke="#333333" stroke-miterlimit="10" width="7.1" height="9.1"/>
		</g>
		<g>
			
				<rect x="88.2" y="65.8" transform="matrix(0.9999 1.700317e-02 -1.700317e-02 0.9999 1.2094 -1.55)" fill="none" stroke="#333333" stroke-miterlimit="10" width="7.1" height="9.1"/>
		</g>
		<g>
			
				<rect x="77.8" y="78.9" transform="matrix(0.9999 1.677791e-02 -1.677791e-02 0.9999 1.4127 -1.4387)" fill="none" stroke="#333333" stroke-miterlimit="10" width="17.3" height="9.1"/>
		</g>
		<g>
			
				<rect x="98.4" y="65.9" transform="matrix(0.9999 1.673412e-02 -1.673412e-02 0.9999 1.1943 -1.6957)" fill="none" stroke="#333333" stroke-miterlimit="10" width="7.1" height="9.1"/>
		</g>
		<line fill="none" stroke="#333333" stroke-miterlimit="10" x1="97.7" y1="79.1" x2="105.8" y2="79.2"/>
		<line fill="none" stroke="#333333" stroke-miterlimit="10" x1="97.7" y1="82.1" x2="105.8" y2="82.3"/>
		<line fill="none" stroke="#333333" stroke-miterlimit="10" x1="97.6" y1="85.2" x2="105.7" y2="85.3"/>
	</g>
	<g>
		<g>
			<polyline fill="none" stroke="#333333" stroke-miterlimit="10" points="42.2,51 29.4,53 23,11.8 64.2,5.5 69.9,42.6 			"/>
		</g>
		<g>
			
				<rect x="31.5" y="14.6" transform="matrix(0.9883 -0.1525 0.1525 0.9883 -2.3999 7.122)" fill="none" stroke="#333333" stroke-miterlimit="10" width="27.5" height="9.1"/>
		</g>
		<g>
			
				<rect x="33.2" y="29.3" transform="matrix(0.9883 -0.1523 0.1523 0.9883 -4.2634 5.9538)" fill="none" stroke="#333333" stroke-miterlimit="10" width="7.1" height="3"/>
		</g>
		<g>
			
				<rect x="43.2" y="27.7" transform="matrix(0.9883 -0.1526 0.1526 0.9883 -3.916 7.4801)" fill="none" stroke="#333333" stroke-miterlimit="10" width="7.1" height="3"/>
		</g>
		<line fill="none" stroke="#333333" stroke-miterlimit="10" x1="52.6" y1="26.8" x2="60.6" y2="25.6"/>
		<line fill="none" stroke="#333333" stroke-miterlimit="10" x1="53" y1="29.8" x2="61.1" y2="28.6"/>
		<line fill="none" stroke="#333333" stroke-miterlimit="10" x1="34" y1="40" x2="62.2" y2="35.6"/>
		<line fill="none" stroke="#333333" stroke-miterlimit="10" x1="34.5" y1="43" x2="62.6" y2="38.6"/>
		<line fill="none" stroke="#333333" stroke-miterlimit="10" x1="52.4" y1="43.3" x2="63.1" y2="41.7"/>
		<line fill="none" stroke="#333333" stroke-miterlimit="10" x1="35" y1="46" x2="42" y2="44.9"/>
	</g>
	<g>
		<g>
			
				<rect x="42.5" y="43" transform="matrix(0.9991 -4.232049e-02 4.232049e-02 0.9991 -2.3257 2.5794)" fill="none" stroke="#333333" stroke-miterlimit="10" width="34.6" height="26.4"/>
		</g>
		<g>
			
				<rect x="47.4" y="48.5" transform="matrix(0.9991 -4.238671e-02 4.238671e-02 0.9991 -2.2019 2.2083)" fill="none" stroke="#333333" stroke-miterlimit="10" width="7.1" height="9.2"/>
		</g>
		<g>
			
				<rect x="47.8" y="60.6" transform="matrix(0.9991 -4.212616e-02 4.212616e-02 0.9991 -2.5734 2.2188)" fill="none" stroke="#333333" stroke-miterlimit="10" width="7.1" height="3.1"/>
		</g>
		<line fill="none" stroke="#333333" stroke-miterlimit="10" x1="57.9" y1="48.2" x2="71.1" y2="47.6"/>
		<line fill="none" stroke="#333333" stroke-miterlimit="10" x1="58" y1="51.2" x2="66.1" y2="50.9"/>
		<line fill="none" stroke="#333333" stroke-miterlimit="10" x1="58.3" y1="57.3" x2="66.4" y2="57"/>
		<line fill="none" stroke="#333333" stroke-miterlimit="10" x1="58.1" y1="54.3" x2="70.3" y2="53.7"/>
	</g>
	<g>
		<g>
			
				<rect x="77.7" y="16.9" transform="matrix(0.9992 3.953202e-02 -3.953202e-02 0.9992 1.1022 -3.5527)" fill="none" stroke="#333333" stroke-miterlimit="10" width="25.4" height="18.3"/>
		</g>
		<g>
			
				<rect x="80.8" y="20" transform="matrix(0.9992 3.963148e-02 -3.963148e-02 0.9992 0.9845 -3.5687)" fill="none" stroke="#333333" stroke-miterlimit="10" width="19.3" height="6.1"/>
		</g>
		<g>
			
				<rect x="80.5" y="29.1" transform="matrix(0.9992 3.953348e-02 -3.953348e-02 0.9992 1.2829 -3.542)" fill="none" stroke="#333333" stroke-miterlimit="10" width="19.3" height="3.1"/>
		</g>
		<line fill="none" stroke="#333333" stroke-miterlimit="10" x1="80.3" y1="22.6" x2="100.7" y2="23.4"/>
	</g>
</g>
</svg>
