<?xml version="1.0" encoding="utf-8"?>
<!-- Generator: Adobe Illustrator 17.1.0, SVG Export Plug-In . SVG Version: 6.00 Build 0)  -->
<!DOCTYPE svg PUBLIC "-//W3C//DTD SVG 1.0//EN" "http://www.w3.org/TR/2001/REC-SVG-20010904/DTD/svg10.dtd">
<svg version="1.0" id="Layer_1" xmlns="http://www.w3.org/2000/svg" xmlns:xlink="http://www.w3.org/1999/xlink" x="0px" y="0px"
	 viewBox="0 0 135 97" enable-background="new 0 0 135 97" xml:space="preserve">
<g>
	<g>
		<path fill="none" stroke="#333333" d="M121.8,65.1c0,5.9-2.1,11-6.3,15.2c-4.2,4.2-9.3,6.3-15.2,6.3h-61c-6.9,0-12.8-2.5-17.8-7.4
			c-4.9-4.9-7.4-10.8-7.4-17.8c0-4.9,1.3-9.5,4-13.5c2.7-4.1,6.2-7.2,10.5-9.2c-0.1-1-0.1-1.9-0.1-2.4c0-7.9,2.8-14.7,8.4-20.3
			c5.6-5.6,12.4-8.4,20.3-8.4c5.9,0,11.3,1.6,16.1,4.9c4.8,3.3,8.3,7.6,10.5,12.9c2.6-2.3,5.7-3.5,9.3-3.5c4,0,7.3,1.4,10.2,4.2
			c2.8,2.8,4.2,6.2,4.2,10.2c0,2.8-0.8,5.4-2.3,7.7c4.8,1.1,8.8,3.6,11.9,7.5C120.3,55.5,121.8,60,121.8,65.1z"/>
	</g>
	<g>
		<path fill="#333333" d="M69.2,38.8C69.2,38.8,69.2,38.8,69.2,38.8C69.1,38.8,69.1,38.8,69.2,38.8l-7,1.9l0,0c0,0-0.1,0-0.1,0
			l-7.4,5.8c0,0,0,0,0,0l-5.7,7.4c0,0,0,0.1,0,0.1h0l-2.1,6.8c0,0,0,0,0,0c0,0,0,0,0,0.1c0,0,0,0,0,0c0,0,0,0,0,0.1c0,0,0,0,0,0
			l1.1,6.5c0,0.1,0.1,0.2,0.2,0.3l1.5,1.5c0,0,0,0,0,0c0,0,0,0,0.1,0.1c0,0,0,0,0,0c0,0,0.1,0,0.1,0c0,0,0,0,0,0c0,0,0,0,0.1,0
			c0,0,0,0,0,0c0,0,0,0,0,0c0,0,0,0,0,0l0,0l29.7,2.3c0,0,0,0,0,0c0.1,0,0.2,0,0.2-0.1c0.1-0.1,0.1-0.2,0.1-0.3l-2.2-29.8l0,0
			c0,0,0,0,0-0.1l0,0c0,0,0,0,0,0c0,0,0,0,0-0.1c0,0,0,0,0,0c0,0,0,0,0-0.1c0,0,0,0,0,0c0,0,0-0.1-0.1-0.1c0,0,0,0,0,0l-1.5-1.5
			c-0.1-0.1-0.2-0.1-0.3-0.2L69.2,38.8C69.3,38.8,69.3,38.8,69.2,38.8C69.3,38.8,69.2,38.8,69.2,38.8C69.2,38.8,69.2,38.8,69.2,38.8
			L69.2,38.8z M72.2,42.1l-4.4-1.5l1.7-0.9l6,1.7L72.2,42.1L72.2,42.1z M76,40.7l-1.5-0.4l1.2,0.2L76,40.7L76,40.7z M49.5,57.9
			l0.2-3.4l5.6-7.3l7.3-5.7l3.5-0.4l-0.2,3.4L60.2,52l-7.4,5.7L49.5,57.9L49.5,57.9z M66.9,44l0.2-2.9l3.9,1.3L66.9,44L66.9,44z
			 M76.8,43.3l-2.7-0.7l2.7-0.5V43.3L76.8,43.3z M67.7,49.6L66.8,45l5.3-2l3.3,4.2L67.7,49.6L67.7,49.6z M75.9,46.6l-2.7-3.4
			l3.5,0.9L75.9,46.6L75.9,46.6z M77.7,52.7l-1.1-5.1l0.6-1.9L77.7,52.7L77.7,52.7z M61.8,51.5l4.4-5.7l0.8,4.1L61.8,51.5L61.8,51.5
			z M72.5,53.3l-4.1-2.9l6.9-2.1l-1.1,2.4L72.5,53.3L72.5,53.3z M76.6,62.8L73.1,54l1.7-2.8c0,0,0,0,0,0l0.9-1.9L76.6,62.8
			L76.6,62.8z M67.5,59.1l-8.4-0.5l1.8-5.9l6.2-1.9L67.5,59.1L67.5,59.1z M68.3,58.5L67.9,51l4.2,2.9l-1.6,2.5L68.3,58.5L68.3,58.5z
			 M78.8,68.6l-1.3-3.3l-0.7-12.5l1.2,5.9L78.8,68.6L78.8,68.6z M58.2,58.5l-4.1-0.6l5.6-4.3L58.2,58.5L58.2,58.5z M76.3,64.4
			l-7.7-4.8l2.5-2.5c0,0,0,0,0,0l1.4-2.2L76.3,64.4L76.3,64.4z M48.6,58.2l0-0.1L48.6,58.2L48.6,58.2L48.6,58.2z M56,67.2l-4.9-3.2
			l2.2-5.4l4.7,0.7L56,67.2L56,67.2z M50.6,62.7l-1.1-3.9l2.7-0.2L50.6,62.7L50.6,62.7z M49.6,67.2l-1.9-6l1.2-1.8l1.2,4.6
			L49.6,67.2L49.6,67.2z M62.4,63.7l-3.1-4.3l7.6,0.5l-2.4,2.4L62.4,63.7L62.4,63.7z M57,67l1.7-7.1l3.1,4.2L59.2,66L57,67L57,67z
			 M72.6,68.1l-9.4-3.8l1.9-1.3c0,0,0,0,0,0l2.7-2.7L72.6,68.1L72.6,68.1z M78.8,70.6l-4.9-2l-4.7-7.8l7.7,4.8L78.8,70.6L78.8,70.6z
			 M71.1,68.3l-13-0.8l1.6-0.7c0,0,0,0,0.1,0l2.7-1.9L71.1,68.3L71.1,68.3z M52.4,68.4L51.3,65l4,2.7L52.4,68.4L52.4,68.4z
			 M50.3,68.6l0.4-2.7l0.9,2.7L50.3,68.6L50.3,68.6z M48.9,67.6l-0.2-0.2l-0.2-1L48.9,67.6L48.9,67.6z M61.5,69.5L54,68.9l2.4-0.7
			L61.5,69.5L61.5,69.5z M76.9,70.7l-10.3-0.8L61,68.5l12.6,0.8L76.9,70.7L76.9,70.7z"/>
	</g>
</g>
</svg>
